<svg xmlns="http://www.w3.org/2000/svg" xmlns:xlink="http://www.w3.org/1999/xlink" width="120" zoomAndPan="magnify" viewBox="0 0 90 37.5" height="50" preserveAspectRatio="xMidYMid meet" version="1.0"><defs><g/><clipPath id="17e1913d83"><path d="M 1 17 L 25 17 L 25 30.539062 L 1 30.539062 Z M 1 17 " clip-rule="nonzero"/></clipPath><clipPath id="d664796321"><path d="M 1 9 L 27.976562 9 L 27.976562 28 L 1 28 Z M 1 9 " clip-rule="nonzero"/></clipPath><clipPath id="11882eda96"><path d="M 0.59375 6.113281 L 23 6.113281 L 23 26 L 0.59375 26 Z M 0.59375 6.113281 " clip-rule="nonzero"/></clipPath><clipPath id="cbfa7a179e"><path d="M 83 16 L 89.40625 16 L 89.40625 23 L 83 23 Z M 83 16 " clip-rule="nonzero"/></clipPath></defs><g clip-path="url(#17e1913d83)"><path fill="#ffffff" d="M 9.75 19.3125 C 12.730469 17.636719 14.195312 19.128906 16.078125 19.796875 C 17.074219 20.148438 19.714844 20.289062 20.019531 18.957031 C 20.089844 18.632812 19.957031 18.320312 19.753906 18.121094 C 19.675781 18.042969 19.5625 17.972656 19.417969 17.894531 C 20.128906 17.953125 20.835938 17.976562 21.484375 18.003906 C 22.324219 18.035156 23.140625 18.316406 23.734375 18.9375 C 24.226562 19.449219 24.5 20.121094 24.511719 20.828125 C 24.519531 21.460938 24.3125 22.070312 23.929688 22.574219 C 23.46875 23.183594 22.804688 23.570312 22.085938 23.785156 C 19.878906 24.425781 17.636719 23.609375 15.683594 22.585938 C 14.324219 21.875 13.050781 21.035156 11.714844 20.289062 C 11.09375 19.945312 10.433594 19.609375 9.75 19.3125 Z M 1.773438 25.164062 C 2.34375 27.226562 3.871094 28.941406 6.128906 29.804688 C 8.390625 30.664062 9.976562 30.886719 11.371094 30.851562 C 12.769531 30.820312 14.933594 30.4375 14.933594 30.4375 C 12.304688 30.335938 5.917969 29.488281 5.734375 25.925781 C 5.671875 24.691406 6.371094 24.65625 6.972656 24.847656 C 9.425781 25.621094 11.46875 27.660156 14.472656 28.640625 C 17.398438 29.589844 21.800781 29.640625 24.054688 27.433594 C 23.140625 27.847656 22.148438 28.082031 21.074219 28.109375 C 17.769531 28.179688 14.464844 26.230469 11.78125 24.464844 C 10.992188 23.945312 10.207031 23.429688 9.40625 22.9375 C 8.667969 22.484375 7.917969 22.050781 7.132812 21.679688 C 6.039062 21.164062 4.578125 20.625 3.378906 21 C 1.488281 21.597656 1.308594 23.488281 1.773438 25.164062 Z M 1.773438 25.164062 " fill-opacity="1" fill-rule="evenodd"/></g><g clip-path="url(#d664796321)"><path fill="#ffffff" d="M 16.292969 12.054688 C 16.292969 12.054688 15.386719 14.074219 16.433594 14.839844 C 16.65625 15 17.0625 15.097656 17.59375 15.167969 C 20.597656 15.578125 23.28125 15.1875 25.191406 16.25 C 26.695312 17.085938 28.167969 18.75 28.203125 20.859375 C 28.226562 22.675781 27.40625 24.308594 26.136719 25.5 C 21.566406 29.785156 16.277344 26.910156 12.011719 24.109375 C 8.558594 21.84375 5.074219 19.53125 2.71875 20.828125 C 1.425781 21.539062 1.476562 22.457031 1.359375 23.1875 C 0.777344 20.910156 2.898438 19.164062 4.953125 18.851562 C 7.074219 18.527344 9.40625 19.488281 11.507812 20.664062 C 14.5625 22.375 18.363281 25.3125 22.203125 24.191406 C 24.046875 23.65625 24.960938 22.230469 24.941406 20.828125 C 24.921875 19.242188 23.722656 17.675781 21.503906 17.582031 C 19.976562 17.519531 17.371094 17.484375 15.691406 16.535156 C 15.015625 16.152344 14.675781 15.648438 14.570312 15.105469 C 14.351562 13.972656 15.191406 12.675781 16.292969 12.054688 Z M 4.542969 23.128906 C 5.105469 23.128906 5.566406 23.589844 5.566406 24.152344 C 5.566406 24.714844 5.105469 25.175781 4.542969 25.175781 C 3.980469 25.175781 3.519531 24.714844 3.519531 24.152344 C 3.519531 23.589844 3.980469 23.128906 4.542969 23.128906 Z M 14.167969 9.039062 C 14.953125 9.039062 15.59375 9.671875 15.59375 10.464844 C 15.59375 11.246094 14.957031 11.886719 14.167969 11.886719 C 13.386719 11.886719 12.746094 11.253906 12.746094 10.464844 C 12.75 9.671875 13.386719 9.039062 14.167969 9.039062 Z M 4.582031 14.996094 C 5.269531 14.996094 5.820312 15.550781 5.820312 16.230469 C 5.820312 16.917969 5.261719 17.46875 4.582031 17.46875 C 3.898438 17.46875 3.347656 16.910156 3.347656 16.230469 C 3.347656 15.550781 3.898438 14.996094 4.582031 14.996094 Z M 4.582031 14.996094 " fill-opacity="1" fill-rule="evenodd"/></g><g clip-path="url(#11882eda96)"><path fill="#ffffff" d="M 1.367188 17.601562 C 1.792969 17.601562 2.136719 17.945312 2.136719 18.375 C 2.136719 18.800781 1.792969 19.144531 1.367188 19.144531 C 0.9375 19.144531 0.59375 18.800781 0.59375 18.375 C 0.59375 17.945312 0.9375 17.601562 1.367188 17.601562 Z M 20.429688 22.050781 C 21.449219 22.050781 22.28125 22.878906 22.28125 23.902344 C 22.28125 24.921875 21.449219 25.753906 20.429688 25.753906 C 19.40625 25.753906 18.578125 24.921875 18.578125 23.902344 C 18.582031 22.878906 19.410156 22.050781 20.429688 22.050781 Z M 18.363281 12.390625 C 18.914062 12.390625 19.355469 12.839844 19.355469 13.382812 C 19.355469 13.925781 18.90625 14.371094 18.363281 14.371094 C 17.8125 14.371094 17.371094 13.925781 17.371094 13.382812 C 17.371094 12.839844 17.820312 12.390625 18.363281 12.390625 Z M 9.804688 11.007812 C 11.714844 11.007812 13.261719 12.554688 13.261719 14.464844 C 13.261719 16.371094 11.714844 17.921875 9.804688 17.921875 C 7.898438 17.921875 6.351562 16.371094 6.351562 14.464844 C 6.351562 12.554688 7.898438 11.007812 9.804688 11.007812 Z M 10.039062 6.113281 C 11.105469 6.113281 11.96875 6.972656 11.96875 8.042969 C 11.96875 9.109375 11.101562 9.972656 10.039062 9.972656 C 8.972656 9.972656 8.109375 9.105469 8.109375 8.042969 C 8.109375 6.980469 8.976562 6.113281 10.039062 6.113281 Z M 10.039062 6.113281 " fill-opacity="1" fill-rule="evenodd"/></g><g fill="#ffffff" fill-opacity="1"><g transform="translate(30.380085, 22.788941)"><g><path d="M 3.015625 0.09375 C 2.441406 0.09375 1.960938 -0.0390625 1.578125 -0.3125 C 1.191406 -0.582031 0.898438 -0.957031 0.703125 -1.4375 C 0.515625 -1.914062 0.421875 -2.476562 0.421875 -3.125 C 0.421875 -3.769531 0.519531 -4.332031 0.71875 -4.8125 C 0.914062 -5.289062 1.210938 -5.660156 1.609375 -5.921875 C 2.003906 -6.191406 2.488281 -6.328125 3.0625 -6.328125 C 3.457031 -6.328125 3.78125 -6.28125 4.03125 -6.1875 C 4.289062 -6.101562 4.488281 -5.984375 4.625 -5.828125 C 4.757812 -5.671875 4.828125 -5.5 4.828125 -5.3125 C 4.828125 -5.101562 4.742188 -4.929688 4.578125 -4.796875 C 4.410156 -4.671875 4.164062 -4.609375 3.84375 -4.609375 C 3.84375 -4.796875 3.816406 -4.976562 3.765625 -5.15625 C 3.710938 -5.34375 3.625 -5.492188 3.5 -5.609375 C 3.375 -5.734375 3.207031 -5.796875 3 -5.796875 C 2.6875 -5.796875 2.4375 -5.6875 2.25 -5.46875 C 2.070312 -5.257812 1.941406 -4.957031 1.859375 -4.5625 C 1.773438 -4.164062 1.734375 -3.6875 1.734375 -3.125 C 1.734375 -2.5625 1.78125 -2.085938 1.875 -1.703125 C 1.976562 -1.316406 2.140625 -1.023438 2.359375 -0.828125 C 2.578125 -0.640625 2.867188 -0.546875 3.234375 -0.546875 C 3.492188 -0.546875 3.71875 -0.585938 3.90625 -0.671875 C 4.09375 -0.765625 4.25 -0.875 4.375 -1 C 4.5 -1.132812 4.609375 -1.269531 4.703125 -1.40625 C 4.734375 -1.363281 4.757812 -1.304688 4.78125 -1.234375 C 4.8125 -1.171875 4.828125 -1.109375 4.828125 -1.046875 C 4.828125 -0.921875 4.796875 -0.789062 4.734375 -0.65625 C 4.671875 -0.53125 4.570312 -0.410156 4.4375 -0.296875 C 4.3125 -0.179688 4.128906 -0.0859375 3.890625 -0.015625 C 3.660156 0.0546875 3.367188 0.09375 3.015625 0.09375 Z M 3.015625 0.09375 "/></g></g></g><g fill="#ffffff" fill-opacity="1"><g transform="translate(35.516496, 22.788941)"><g><path d="M 0.203125 0 L 0.203125 -0.453125 L 0.5 -0.453125 C 0.582031 -0.453125 0.65625 -0.46875 0.71875 -0.5 C 0.78125 -0.53125 0.828125 -0.582031 0.859375 -0.65625 C 0.898438 -0.726562 0.921875 -0.828125 0.921875 -0.953125 L 0.921875 -5.25 C 0.921875 -5.414062 0.898438 -5.535156 0.859375 -5.609375 C 0.816406 -5.691406 0.765625 -5.742188 0.703125 -5.765625 C 0.640625 -5.785156 0.566406 -5.796875 0.484375 -5.796875 L 0.203125 -5.796875 L 0.203125 -6.25 L 4.484375 -6.25 L 4.5 -4.65625 L 3.953125 -4.65625 L 3.921875 -5.0625 C 3.910156 -5.195312 3.882812 -5.316406 3.84375 -5.421875 C 3.800781 -5.523438 3.738281 -5.601562 3.65625 -5.65625 C 3.582031 -5.707031 3.476562 -5.734375 3.34375 -5.734375 L 2.15625 -5.734375 L 2.15625 -3.515625 L 3.96875 -3.515625 L 3.96875 -3.015625 L 2.15625 -3.015625 L 2.15625 -0.515625 L 3.546875 -0.515625 C 3.679688 -0.515625 3.789062 -0.539062 3.875 -0.59375 C 3.957031 -0.65625 4.019531 -0.738281 4.0625 -0.84375 C 4.113281 -0.945312 4.148438 -1.0625 4.171875 -1.1875 L 4.21875 -1.59375 L 4.765625 -1.59375 L 4.71875 0 Z M 0.203125 0 "/></g></g></g><g fill="#ffffff" fill-opacity="1"><g transform="translate(40.512903, 22.788941)"><g><path d="M 0.203125 0 L 0.203125 -0.453125 L 0.40625 -0.453125 C 0.507812 -0.453125 0.597656 -0.460938 0.671875 -0.484375 C 0.742188 -0.515625 0.800781 -0.566406 0.84375 -0.640625 C 0.894531 -0.722656 0.921875 -0.835938 0.921875 -0.984375 L 0.921875 -5.265625 C 0.921875 -5.410156 0.898438 -5.519531 0.859375 -5.59375 C 0.816406 -5.675781 0.765625 -5.726562 0.703125 -5.75 C 0.640625 -5.78125 0.566406 -5.796875 0.484375 -5.796875 L 0.203125 -5.796875 L 0.203125 -6.25 L 2.4375 -6.25 L 3.640625 -1.859375 L 4.796875 -6.25 L 7.0625 -6.25 L 7.0625 -5.796875 L 6.765625 -5.796875 C 6.691406 -5.796875 6.625 -5.78125 6.5625 -5.75 C 6.5 -5.726562 6.445312 -5.675781 6.40625 -5.59375 C 6.375 -5.519531 6.359375 -5.414062 6.359375 -5.28125 L 6.359375 -0.96875 C 6.359375 -0.832031 6.375 -0.722656 6.40625 -0.640625 C 6.445312 -0.566406 6.5 -0.515625 6.5625 -0.484375 C 6.632812 -0.460938 6.71875 -0.453125 6.8125 -0.453125 L 7.0625 -0.453125 L 7.0625 0 L 4.5625 0 L 4.5625 -0.453125 L 4.65625 -0.453125 C 4.769531 -0.453125 4.863281 -0.46875 4.9375 -0.5 C 5.007812 -0.53125 5.0625 -0.585938 5.09375 -0.671875 C 5.125 -0.753906 5.140625 -0.867188 5.140625 -1.015625 L 5.140625 -5.421875 L 3.671875 0 L 3.015625 0 L 1.5 -5.421875 L 1.5 -1.03125 C 1.5 -0.851562 1.519531 -0.722656 1.5625 -0.640625 C 1.613281 -0.566406 1.679688 -0.515625 1.765625 -0.484375 C 1.847656 -0.460938 1.945312 -0.453125 2.0625 -0.453125 L 2.125 -0.453125 L 2.125 0 Z M 0.203125 0 "/></g></g></g><g fill="#ffffff" fill-opacity="1"><g transform="translate(47.775632, 22.788941)"><g><path d="M 0.03125 0 L 0.03125 -0.453125 L 0.125 -0.453125 C 0.21875 -0.453125 0.296875 -0.46875 0.359375 -0.5 C 0.429688 -0.53125 0.5 -0.59375 0.5625 -0.6875 C 0.625 -0.78125 0.679688 -0.910156 0.734375 -1.078125 L 2.375 -6.25 L 3.46875 -6.25 L 5.09375 -0.9375 C 5.132812 -0.820312 5.179688 -0.722656 5.234375 -0.640625 C 5.285156 -0.566406 5.347656 -0.515625 5.421875 -0.484375 C 5.503906 -0.460938 5.59375 -0.453125 5.6875 -0.453125 L 5.78125 -0.453125 L 5.78125 0 L 3.21875 0 L 3.21875 -0.453125 L 3.46875 -0.453125 C 3.582031 -0.453125 3.671875 -0.472656 3.734375 -0.515625 C 3.804688 -0.566406 3.84375 -0.648438 3.84375 -0.765625 C 3.84375 -0.804688 3.835938 -0.851562 3.828125 -0.90625 C 3.816406 -0.957031 3.804688 -1.007812 3.796875 -1.0625 C 3.785156 -1.113281 3.769531 -1.160156 3.75 -1.203125 L 3.515625 -2.0625 L 1.671875 -2.0625 L 1.46875 -1.328125 C 1.445312 -1.273438 1.429688 -1.21875 1.421875 -1.15625 C 1.410156 -1.09375 1.394531 -1.023438 1.375 -0.953125 C 1.363281 -0.890625 1.359375 -0.832031 1.359375 -0.78125 C 1.359375 -0.675781 1.382812 -0.59375 1.4375 -0.53125 C 1.5 -0.476562 1.597656 -0.453125 1.734375 -0.453125 L 2.03125 -0.453125 L 2.03125 0 Z M 1.84375 -2.578125 L 3.34375 -2.578125 L 2.90625 -4.234375 C 2.875 -4.367188 2.835938 -4.503906 2.796875 -4.640625 C 2.753906 -4.773438 2.71875 -4.90625 2.6875 -5.03125 C 2.664062 -5.15625 2.640625 -5.28125 2.609375 -5.40625 C 2.585938 -5.28125 2.5625 -5.15625 2.53125 -5.03125 C 2.5 -4.90625 2.46875 -4.78125 2.4375 -4.65625 C 2.40625 -4.53125 2.367188 -4.40625 2.328125 -4.28125 Z M 1.84375 -2.578125 "/></g></g></g><g fill="#ffffff" fill-opacity="1"><g transform="translate(53.550815, 22.788941)"><g><path d="M 0.203125 0 L 0.203125 -0.453125 L 0.421875 -0.453125 C 0.503906 -0.453125 0.582031 -0.460938 0.65625 -0.484375 C 0.738281 -0.503906 0.800781 -0.550781 0.84375 -0.625 C 0.894531 -0.707031 0.921875 -0.828125 0.921875 -0.984375 L 0.921875 -5.265625 C 0.921875 -5.421875 0.894531 -5.535156 0.84375 -5.609375 C 0.789062 -5.691406 0.726562 -5.742188 0.65625 -5.765625 C 0.582031 -5.785156 0.503906 -5.796875 0.421875 -5.796875 L 0.203125 -5.796875 L 0.203125 -6.25 L 2.703125 -6.25 C 3.222656 -6.25 3.640625 -6.1875 3.953125 -6.0625 C 4.273438 -5.9375 4.507812 -5.75 4.65625 -5.5 C 4.800781 -5.25 4.875 -4.945312 4.875 -4.59375 C 4.875 -4.269531 4.820312 -4 4.71875 -3.78125 C 4.625 -3.5625 4.488281 -3.382812 4.3125 -3.25 C 4.144531 -3.125 3.96875 -3.03125 3.78125 -2.96875 L 4.71875 -1.171875 C 4.84375 -0.921875 4.957031 -0.738281 5.0625 -0.625 C 5.175781 -0.507812 5.300781 -0.453125 5.4375 -0.453125 L 5.484375 -0.453125 L 5.484375 0 L 5.21875 0 C 4.925781 0 4.671875 -0.0195312 4.453125 -0.0625 C 4.242188 -0.101562 4.066406 -0.179688 3.921875 -0.296875 C 3.773438 -0.410156 3.648438 -0.570312 3.546875 -0.78125 L 2.65625 -2.71875 L 2.171875 -2.71875 L 2.171875 -0.984375 C 2.171875 -0.828125 2.1875 -0.707031 2.21875 -0.625 C 2.257812 -0.550781 2.316406 -0.503906 2.390625 -0.484375 C 2.460938 -0.460938 2.539062 -0.453125 2.625 -0.453125 L 2.78125 -0.453125 L 2.78125 0 Z M 2.5625 -3.203125 C 2.914062 -3.203125 3.164062 -3.3125 3.3125 -3.53125 C 3.46875 -3.757812 3.546875 -4.09375 3.546875 -4.53125 C 3.546875 -4.8125 3.507812 -5.039062 3.4375 -5.21875 C 3.375 -5.40625 3.269531 -5.539062 3.125 -5.625 C 2.976562 -5.707031 2.789062 -5.75 2.5625 -5.75 L 2.171875 -5.75 L 2.171875 -3.203125 Z M 2.5625 -3.203125 "/></g></g></g><g fill="#ffffff" fill-opacity="1"><g transform="translate(59.019738, 22.788941)"><g><path d="M 0.03125 0 L 0.03125 -0.453125 L 0.125 -0.453125 C 0.21875 -0.453125 0.296875 -0.46875 0.359375 -0.5 C 0.429688 -0.53125 0.5 -0.59375 0.5625 -0.6875 C 0.625 -0.78125 0.679688 -0.910156 0.734375 -1.078125 L 2.375 -6.25 L 3.46875 -6.25 L 5.09375 -0.9375 C 5.132812 -0.820312 5.179688 -0.722656 5.234375 -0.640625 C 5.285156 -0.566406 5.347656 -0.515625 5.421875 -0.484375 C 5.503906 -0.460938 5.59375 -0.453125 5.6875 -0.453125 L 5.78125 -0.453125 L 5.78125 0 L 3.21875 0 L 3.21875 -0.453125 L 3.46875 -0.453125 C 3.582031 -0.453125 3.671875 -0.472656 3.734375 -0.515625 C 3.804688 -0.566406 3.84375 -0.648438 3.84375 -0.765625 C 3.84375 -0.804688 3.835938 -0.851562 3.828125 -0.90625 C 3.816406 -0.957031 3.804688 -1.007812 3.796875 -1.0625 C 3.785156 -1.113281 3.769531 -1.160156 3.75 -1.203125 L 3.515625 -2.0625 L 1.671875 -2.0625 L 1.46875 -1.328125 C 1.445312 -1.273438 1.429688 -1.21875 1.421875 -1.15625 C 1.410156 -1.09375 1.394531 -1.023438 1.375 -0.953125 C 1.363281 -0.890625 1.359375 -0.832031 1.359375 -0.78125 C 1.359375 -0.675781 1.382812 -0.59375 1.4375 -0.53125 C 1.5 -0.476562 1.597656 -0.453125 1.734375 -0.453125 L 2.03125 -0.453125 L 2.03125 0 Z M 1.84375 -2.578125 L 3.34375 -2.578125 L 2.90625 -4.234375 C 2.875 -4.367188 2.835938 -4.503906 2.796875 -4.640625 C 2.753906 -4.773438 2.71875 -4.90625 2.6875 -5.03125 C 2.664062 -5.15625 2.640625 -5.28125 2.609375 -5.40625 C 2.585938 -5.28125 2.5625 -5.15625 2.53125 -5.03125 C 2.5 -4.90625 2.46875 -4.78125 2.4375 -4.65625 C 2.40625 -4.53125 2.367188 -4.40625 2.328125 -4.28125 Z M 1.84375 -2.578125 "/></g></g></g><g fill="#ffffff" fill-opacity="1"><g transform="translate(64.794922, 22.788941)"><g><path d="M 0.640625 -5.34375 C 0.609375 -5.46875 0.566406 -5.5625 0.515625 -5.625 C 0.472656 -5.695312 0.414062 -5.742188 0.34375 -5.765625 C 0.28125 -5.785156 0.195312 -5.796875 0.09375 -5.796875 L 0 -5.796875 L 0 -6.25 L 2.578125 -6.25 L 2.578125 -5.796875 L 2.40625 -5.796875 C 2.25 -5.796875 2.132812 -5.765625 2.0625 -5.703125 C 1.988281 -5.648438 1.953125 -5.554688 1.953125 -5.421875 C 1.953125 -5.378906 1.957031 -5.304688 1.96875 -5.203125 C 1.988281 -5.109375 2.007812 -5.019531 2.03125 -4.9375 L 2.53125 -2.6875 C 2.5625 -2.539062 2.59375 -2.382812 2.625 -2.21875 C 2.664062 -2.050781 2.703125 -1.890625 2.734375 -1.734375 C 2.765625 -1.578125 2.785156 -1.4375 2.796875 -1.3125 C 2.828125 -1.507812 2.867188 -1.71875 2.921875 -1.9375 C 2.984375 -2.15625 3.046875 -2.394531 3.109375 -2.65625 L 4.046875 -6.1875 L 4.796875 -6.1875 L 5.640625 -2.75 C 5.703125 -2.46875 5.757812 -2.203125 5.8125 -1.953125 C 5.875 -1.710938 5.921875 -1.492188 5.953125 -1.296875 C 5.984375 -1.421875 6.007812 -1.554688 6.03125 -1.703125 C 6.0625 -1.859375 6.09375 -2.019531 6.125 -2.1875 C 6.164062 -2.351562 6.203125 -2.519531 6.234375 -2.6875 L 6.734375 -4.875 C 6.742188 -4.96875 6.757812 -5.066406 6.78125 -5.171875 C 6.800781 -5.285156 6.8125 -5.375 6.8125 -5.4375 C 6.8125 -5.570312 6.769531 -5.664062 6.6875 -5.71875 C 6.613281 -5.769531 6.492188 -5.796875 6.328125 -5.796875 L 6.15625 -5.796875 L 6.15625 -6.25 L 8.15625 -6.25 L 8.15625 -5.796875 L 8.015625 -5.796875 C 7.910156 -5.796875 7.820312 -5.78125 7.75 -5.75 C 7.6875 -5.71875 7.628906 -5.648438 7.578125 -5.546875 C 7.523438 -5.453125 7.472656 -5.3125 7.421875 -5.125 L 6.234375 0 L 5.1875 0 L 4.125 -4.359375 L 3.015625 0 L 1.953125 0 Z M 0.640625 -5.34375 "/></g></g></g><g fill="#ffffff" fill-opacity="1"><g transform="translate(72.94143, 22.788941)"><g><path d="M 0.03125 0 L 0.03125 -0.453125 L 0.125 -0.453125 C 0.21875 -0.453125 0.296875 -0.46875 0.359375 -0.5 C 0.429688 -0.53125 0.5 -0.59375 0.5625 -0.6875 C 0.625 -0.78125 0.679688 -0.910156 0.734375 -1.078125 L 2.375 -6.25 L 3.46875 -6.25 L 5.09375 -0.9375 C 5.132812 -0.820312 5.179688 -0.722656 5.234375 -0.640625 C 5.285156 -0.566406 5.347656 -0.515625 5.421875 -0.484375 C 5.503906 -0.460938 5.59375 -0.453125 5.6875 -0.453125 L 5.78125 -0.453125 L 5.78125 0 L 3.21875 0 L 3.21875 -0.453125 L 3.46875 -0.453125 C 3.582031 -0.453125 3.671875 -0.472656 3.734375 -0.515625 C 3.804688 -0.566406 3.84375 -0.648438 3.84375 -0.765625 C 3.84375 -0.804688 3.835938 -0.851562 3.828125 -0.90625 C 3.816406 -0.957031 3.804688 -1.007812 3.796875 -1.0625 C 3.785156 -1.113281 3.769531 -1.160156 3.75 -1.203125 L 3.515625 -2.0625 L 1.671875 -2.0625 L 1.46875 -1.328125 C 1.445312 -1.273438 1.429688 -1.21875 1.421875 -1.15625 C 1.410156 -1.09375 1.394531 -1.023438 1.375 -0.953125 C 1.363281 -0.890625 1.359375 -0.832031 1.359375 -0.78125 C 1.359375 -0.675781 1.382812 -0.59375 1.4375 -0.53125 C 1.5 -0.476562 1.597656 -0.453125 1.734375 -0.453125 L 2.03125 -0.453125 L 2.03125 0 Z M 1.84375 -2.578125 L 3.34375 -2.578125 L 2.90625 -4.234375 C 2.875 -4.367188 2.835938 -4.503906 2.796875 -4.640625 C 2.753906 -4.773438 2.71875 -4.90625 2.6875 -5.03125 C 2.664062 -5.15625 2.640625 -5.28125 2.609375 -5.40625 C 2.585938 -5.28125 2.5625 -5.15625 2.53125 -5.03125 C 2.5 -4.90625 2.46875 -4.78125 2.4375 -4.65625 C 2.40625 -4.53125 2.367188 -4.40625 2.328125 -4.28125 Z M 1.84375 -2.578125 "/></g></g></g><g fill="#ffffff" fill-opacity="1"><g transform="translate(78.716613, 22.788941)"><g><path d="M 2.09375 0.09375 C 1.738281 0.09375 1.441406 0.0546875 1.203125 -0.015625 C 0.960938 -0.0859375 0.769531 -0.179688 0.625 -0.296875 C 0.488281 -0.410156 0.390625 -0.539062 0.328125 -0.6875 C 0.273438 -0.832031 0.25 -0.976562 0.25 -1.125 C 0.25 -1.3125 0.285156 -1.457031 0.359375 -1.5625 C 0.441406 -1.675781 0.546875 -1.757812 0.671875 -1.8125 C 0.804688 -1.875 0.945312 -1.90625 1.09375 -1.90625 C 1.101562 -1.570312 1.160156 -1.296875 1.265625 -1.078125 C 1.367188 -0.859375 1.503906 -0.691406 1.671875 -0.578125 C 1.835938 -0.460938 2.019531 -0.40625 2.21875 -0.40625 C 2.507812 -0.40625 2.734375 -0.5 2.890625 -0.6875 C 3.046875 -0.875 3.125 -1.101562 3.125 -1.375 C 3.125 -1.59375 3.070312 -1.773438 2.96875 -1.921875 C 2.875 -2.066406 2.726562 -2.203125 2.53125 -2.328125 C 2.34375 -2.453125 2.113281 -2.582031 1.84375 -2.71875 C 1.476562 -2.882812 1.191406 -3.0625 0.984375 -3.25 C 0.785156 -3.4375 0.640625 -3.644531 0.546875 -3.875 C 0.453125 -4.113281 0.40625 -4.375 0.40625 -4.65625 C 0.40625 -5.007812 0.488281 -5.304688 0.65625 -5.546875 C 0.820312 -5.796875 1.050781 -5.988281 1.34375 -6.125 C 1.632812 -6.257812 1.957031 -6.328125 2.3125 -6.328125 C 2.6875 -6.328125 2.992188 -6.273438 3.234375 -6.171875 C 3.472656 -6.078125 3.648438 -5.945312 3.765625 -5.78125 C 3.890625 -5.625 3.953125 -5.460938 3.953125 -5.296875 C 3.953125 -5.085938 3.878906 -4.925781 3.734375 -4.8125 C 3.597656 -4.695312 3.363281 -4.640625 3.03125 -4.640625 C 3.03125 -4.835938 3 -5.023438 2.9375 -5.203125 C 2.875 -5.390625 2.78125 -5.539062 2.65625 -5.65625 C 2.53125 -5.769531 2.367188 -5.828125 2.171875 -5.828125 C 1.941406 -5.828125 1.757812 -5.753906 1.625 -5.609375 C 1.488281 -5.460938 1.421875 -5.253906 1.421875 -4.984375 C 1.421875 -4.804688 1.453125 -4.648438 1.515625 -4.515625 C 1.585938 -4.378906 1.710938 -4.242188 1.890625 -4.109375 C 2.078125 -3.972656 2.34375 -3.820312 2.6875 -3.65625 C 3.050781 -3.5 3.335938 -3.328125 3.546875 -3.140625 C 3.765625 -2.960938 3.921875 -2.757812 4.015625 -2.53125 C 4.109375 -2.300781 4.15625 -2.039062 4.15625 -1.75 C 4.15625 -1.375 4.070312 -1.046875 3.90625 -0.765625 C 3.738281 -0.492188 3.5 -0.28125 3.1875 -0.125 C 2.875 0.0195312 2.507812 0.09375 2.09375 0.09375 Z M 2.09375 0.09375 "/></g></g></g><g clip-path="url(#cbfa7a179e)"><g fill="#ffffff" fill-opacity="1"><g transform="translate(83.144255, 22.788941)"><g><path d="M 0.203125 0 L 0.203125 -0.453125 L 0.5 -0.453125 C 0.582031 -0.453125 0.65625 -0.46875 0.71875 -0.5 C 0.78125 -0.53125 0.828125 -0.582031 0.859375 -0.65625 C 0.898438 -0.738281 0.921875 -0.84375 0.921875 -0.96875 L 0.921875 -5.265625 C 0.921875 -5.410156 0.898438 -5.519531 0.859375 -5.59375 C 0.816406 -5.675781 0.757812 -5.726562 0.6875 -5.75 C 0.625 -5.78125 0.546875 -5.796875 0.453125 -5.796875 L 0.203125 -5.796875 L 0.203125 -6.25 L 2.78125 -6.25 L 2.78125 -5.796875 L 2.5625 -5.796875 C 2.476562 -5.796875 2.40625 -5.78125 2.34375 -5.75 C 2.28125 -5.726562 2.234375 -5.675781 2.203125 -5.59375 C 2.179688 -5.519531 2.171875 -5.414062 2.171875 -5.28125 L 2.171875 -3.515625 L 4.109375 -3.515625 L 4.109375 -5.265625 C 4.109375 -5.410156 4.085938 -5.519531 4.046875 -5.59375 C 4.015625 -5.675781 3.96875 -5.726562 3.90625 -5.75 C 3.84375 -5.78125 3.765625 -5.796875 3.671875 -5.796875 L 3.484375 -5.796875 L 3.484375 -6.25 L 6.0625 -6.25 L 6.0625 -5.796875 L 5.75 -5.796875 C 5.675781 -5.796875 5.609375 -5.78125 5.546875 -5.75 C 5.484375 -5.726562 5.429688 -5.675781 5.390625 -5.59375 C 5.359375 -5.519531 5.34375 -5.410156 5.34375 -5.265625 L 5.34375 -0.96875 C 5.34375 -0.84375 5.359375 -0.738281 5.390625 -0.65625 C 5.429688 -0.582031 5.484375 -0.53125 5.546875 -0.5 C 5.609375 -0.46875 5.675781 -0.453125 5.75 -0.453125 L 6.0625 -0.453125 L 6.0625 0 L 3.484375 0 L 3.484375 -0.453125 L 3.6875 -0.453125 C 3.769531 -0.453125 3.84375 -0.46875 3.90625 -0.5 C 3.96875 -0.53125 4.015625 -0.585938 4.046875 -0.671875 C 4.085938 -0.753906 4.109375 -0.863281 4.109375 -1 L 4.109375 -3.015625 L 2.171875 -3.015625 L 2.171875 -0.96875 C 2.171875 -0.84375 2.179688 -0.738281 2.203125 -0.65625 C 2.234375 -0.582031 2.28125 -0.53125 2.34375 -0.5 C 2.40625 -0.46875 2.476562 -0.453125 2.5625 -0.453125 L 2.78125 -0.453125 L 2.78125 0 Z M 0.203125 0 "/></g></g></g></g></svg>