<svg xmlns="http://www.w3.org/2000/svg" xmlns:xlink="http://www.w3.org/1999/xlink" width="500" zoomAndPan="magnify" viewBox="0 0 375 374.999991" height="500" preserveAspectRatio="xMidYMid meet" version="1.0"><defs><g/><clipPath id="95cecacf38"><path d="M 13 180 L 103 180 L 103 231.546875 L 13 231.546875 Z M 13 180 " clip-rule="nonzero"/></clipPath><clipPath id="f424ac0d7b"><path d="M 11 146 L 117.339844 146 L 117.339844 219 L 11 219 Z M 11 146 " clip-rule="nonzero"/></clipPath><clipPath id="856095b803"><path d="M 9.339844 134.796875 L 94 134.796875 L 94 212 L 9.339844 212 Z M 9.339844 134.796875 " clip-rule="nonzero"/></clipPath></defs><rect x="-37.5" width="450" fill="#ffffff" y="-37.499999" height="449.999989" fill-opacity="1"/><rect x="-37.5" width="450" fill="#000000" y="-37.499999" height="449.999989" fill-opacity="1"/><g clip-path="url(#95cecacf38)"><path fill="#ffffff" d="M 45.082031 186.316406 C 56.730469 179.769531 62.441406 185.609375 69.792969 188.210938 C 73.683594 189.574219 83.992188 190.128906 85.179688 184.925781 C 85.457031 183.664062 84.925781 182.449219 84.144531 181.667969 C 83.839844 181.363281 83.386719 181.085938 82.832031 180.78125 C 85.609375 181.007812 88.363281 181.109375 90.890625 181.210938 C 94.175781 181.335938 97.359375 182.425781 99.683594 184.851562 C 101.601562 186.847656 102.664062 189.472656 102.714844 192.226562 C 102.738281 194.703125 101.929688 197.078125 100.441406 199.050781 C 98.644531 201.425781 96.042969 202.941406 93.238281 203.773438 C 84.625 206.273438 75.882812 203.089844 68.25 199.097656 C 62.945312 196.320312 57.96875 193.035156 52.765625 190.128906 C 50.339844 188.792969 47.761719 187.476562 45.082031 186.316406 Z M 13.957031 209.15625 C 16.179688 217.214844 22.140625 223.910156 30.960938 227.269531 C 39.777344 230.632812 45.96875 231.488281 51.425781 231.363281 C 56.882812 231.238281 65.320312 229.746094 65.320312 229.746094 C 55.0625 229.34375 30.125 226.03125 29.417969 212.136719 C 29.167969 207.3125 31.894531 207.183594 34.246094 207.917969 C 43.820312 210.949219 51.804688 218.90625 63.527344 222.722656 C 74.949219 226.4375 92.128906 226.640625 100.921875 218.023438 C 97.359375 219.640625 93.492188 220.550781 89.296875 220.652344 C 76.386719 220.929688 63.503906 213.324219 53.015625 206.425781 C 49.933594 204.40625 46.878906 202.382812 43.746094 200.464844 C 40.863281 198.695312 37.933594 197.003906 34.875 195.5625 C 30.605469 193.542969 24.894531 191.445312 20.222656 192.910156 C 12.84375 195.234375 12.136719 202.613281 13.957031 209.15625 Z M 13.957031 209.15625 " fill-opacity="1" fill-rule="evenodd"/></g><g clip-path="url(#f424ac0d7b)"><path fill="#ffffff" d="M 70.625 157.992188 C 70.625 157.992188 67.089844 165.875 71.183594 168.855469 C 72.042969 169.488281 73.632812 169.867188 75.707031 170.144531 C 87.429688 171.738281 97.914062 170.222656 105.367188 174.363281 C 111.230469 177.625 116.988281 184.117188 117.117188 192.355469 C 117.214844 199.453125 114.007812 205.820312 109.054688 210.46875 C 91.21875 227.195312 70.578125 215.976562 53.925781 205.035156 C 40.433594 196.195312 26.839844 187.175781 17.644531 192.226562 C 12.59375 195.007812 12.792969 198.59375 12.339844 201.449219 C 10.066406 192.554688 18.351562 185.734375 26.363281 184.519531 C 34.648438 183.257812 43.746094 186.996094 51.957031 191.59375 C 63.882812 198.265625 78.710938 209.738281 93.695312 205.367188 C 100.894531 203.269531 104.457031 197.710938 104.382812 192.226562 C 104.304688 186.039062 99.632812 179.921875 90.964844 179.570312 C 85.003906 179.316406 74.847656 179.191406 68.277344 175.476562 C 65.648438 173.984375 64.308594 172.015625 63.90625 169.890625 C 63.046875 165.472656 66.332031 160.417969 70.625 157.992188 Z M 24.769531 201.222656 C 26.96875 201.222656 28.761719 203.015625 28.761719 205.214844 C 28.761719 207.410156 26.96875 209.207031 24.769531 209.207031 C 22.570312 209.207031 20.777344 207.410156 20.777344 205.214844 C 20.777344 203.015625 22.570312 201.222656 24.769531 201.222656 Z M 62.339844 146.21875 C 65.398438 146.21875 67.898438 148.695312 67.898438 151.777344 C 67.898438 154.835938 65.421875 157.335938 62.339844 157.335938 C 59.28125 157.335938 56.78125 154.859375 56.78125 151.777344 C 56.804688 148.695312 59.28125 146.21875 62.339844 146.21875 Z M 24.921875 169.464844 C 27.597656 169.464844 29.746094 171.636719 29.746094 174.289062 C 29.746094 176.96875 27.574219 179.113281 24.921875 179.113281 C 22.242188 179.113281 20.097656 176.941406 20.097656 174.289062 C 20.097656 171.636719 22.242188 169.464844 24.921875 169.464844 Z M 24.921875 169.464844 " fill-opacity="1" fill-rule="evenodd"/></g><g clip-path="url(#856095b803)"><path fill="#ffffff" d="M 12.363281 179.644531 C 14.03125 179.644531 15.371094 180.984375 15.371094 182.652344 C 15.371094 184.320312 14.03125 185.660156 12.363281 185.660156 C 10.695312 185.660156 9.359375 184.320312 9.359375 182.652344 C 9.359375 180.984375 10.695312 179.644531 12.363281 179.644531 Z M 86.773438 197.003906 C 90.761719 197.003906 93.996094 200.238281 93.996094 204.226562 C 93.996094 208.21875 90.761719 211.453125 86.773438 211.453125 C 82.78125 211.453125 79.546875 208.21875 79.546875 204.226562 C 79.570312 200.238281 82.804688 197.003906 86.773438 197.003906 Z M 78.710938 159.304688 C 80.859375 159.304688 82.578125 161.050781 82.578125 163.171875 C 82.578125 165.292969 80.835938 167.039062 78.710938 167.039062 C 76.5625 167.039062 74.847656 165.292969 74.847656 163.171875 C 74.847656 161.050781 76.589844 159.304688 78.710938 159.304688 Z M 45.3125 153.898438 C 52.765625 153.898438 58.800781 159.9375 58.800781 167.390625 C 58.800781 174.84375 52.765625 180.882812 45.3125 180.882812 C 37.859375 180.882812 31.820312 174.84375 31.820312 167.390625 C 31.820312 159.9375 37.859375 153.898438 45.3125 153.898438 Z M 46.21875 134.796875 C 50.390625 134.796875 53.75 138.160156 53.75 142.328125 C 53.75 146.496094 50.363281 149.855469 46.21875 149.855469 C 42.050781 149.855469 38.691406 146.472656 38.691406 142.328125 C 38.691406 138.183594 42.078125 134.796875 46.21875 134.796875 Z M 46.21875 134.796875 " fill-opacity="1" fill-rule="evenodd"/></g><g fill="#ffffff" fill-opacity="1"><g transform="translate(125.589255, 199.874987)"><g><path d="M 11.78125 0.34375 C 9.550781 0.34375 7.675781 -0.175781 6.15625 -1.21875 C 4.644531 -2.269531 3.515625 -3.734375 2.765625 -5.609375 C 2.015625 -7.492188 1.640625 -9.703125 1.640625 -12.234375 C 1.640625 -14.710938 2.023438 -16.890625 2.796875 -18.765625 C 3.578125 -20.648438 4.734375 -22.113281 6.265625 -23.15625 C 7.804688 -24.207031 9.703125 -24.734375 11.953125 -24.734375 C 13.484375 -24.734375 14.753906 -24.550781 15.765625 -24.1875 C 16.773438 -23.820312 17.535156 -23.34375 18.046875 -22.75 C 18.554688 -22.15625 18.8125 -21.492188 18.8125 -20.765625 C 18.8125 -19.941406 18.492188 -19.269531 17.859375 -18.75 C 17.222656 -18.226562 16.28125 -17.96875 15.03125 -17.96875 C 15.03125 -18.71875 14.925781 -19.445312 14.71875 -20.15625 C 14.507812 -20.863281 14.160156 -21.445312 13.671875 -21.90625 C 13.179688 -22.375 12.519531 -22.609375 11.6875 -22.609375 C 10.476562 -22.609375 9.515625 -22.195312 8.796875 -21.375 C 8.078125 -20.5625 7.5625 -19.378906 7.25 -17.828125 C 6.945312 -16.273438 6.796875 -14.410156 6.796875 -12.234375 C 6.796875 -9.992188 6.988281 -8.125 7.375 -6.625 C 7.757812 -5.125 8.378906 -4.003906 9.234375 -3.265625 C 10.085938 -2.523438 11.210938 -2.15625 12.609375 -2.15625 C 13.648438 -2.15625 14.53125 -2.316406 15.25 -2.640625 C 15.96875 -2.972656 16.578125 -3.394531 17.078125 -3.90625 C 17.578125 -4.414062 18 -4.9375 18.34375 -5.46875 C 18.476562 -5.332031 18.585938 -5.125 18.671875 -4.84375 C 18.765625 -4.570312 18.8125 -4.3125 18.8125 -4.0625 C 18.8125 -3.601562 18.695312 -3.117188 18.46875 -2.609375 C 18.25 -2.097656 17.875 -1.617188 17.34375 -1.171875 C 16.820312 -0.734375 16.101562 -0.367188 15.1875 -0.078125 C 14.28125 0.203125 13.144531 0.34375 11.78125 0.34375 Z M 11.78125 0.34375 "/></g></g></g><g fill="#ffffff" fill-opacity="1"><g transform="translate(145.634392, 199.874987)"><g><path d="M 0.8125 0 L 0.8125 -1.734375 L 1.953125 -1.734375 C 2.285156 -1.734375 2.570312 -1.796875 2.8125 -1.921875 C 3.050781 -2.054688 3.238281 -2.269531 3.375 -2.5625 C 3.519531 -2.851562 3.59375 -3.238281 3.59375 -3.71875 L 3.59375 -20.5 C 3.59375 -21.132812 3.507812 -21.601562 3.34375 -21.90625 C 3.1875 -22.21875 2.984375 -22.414062 2.734375 -22.5 C 2.484375 -22.59375 2.195312 -22.640625 1.875 -22.640625 L 0.8125 -22.640625 L 0.8125 -24.390625 L 17.484375 -24.390625 L 17.59375 -18.171875 L 15.4375 -18.171875 L 15.296875 -19.75 C 15.273438 -20.289062 15.1875 -20.757812 15.03125 -21.15625 C 14.875 -21.550781 14.632812 -21.851562 14.3125 -22.0625 C 13.988281 -22.269531 13.566406 -22.375 13.046875 -22.375 L 8.4375 -22.375 L 8.4375 -13.734375 L 15.5 -13.734375 L 15.5 -11.78125 L 8.4375 -11.78125 L 8.4375 -2.015625 L 13.875 -2.015625 C 14.394531 -2.015625 14.8125 -2.128906 15.125 -2.359375 C 15.445312 -2.585938 15.695312 -2.898438 15.875 -3.296875 C 16.0625 -3.691406 16.191406 -4.140625 16.265625 -4.640625 L 16.46875 -6.21875 L 18.609375 -6.21875 L 18.40625 0 Z M 0.8125 0 "/></g></g></g><g fill="#ffffff" fill-opacity="1"><g transform="translate(165.133155, 199.874987)"><g><path d="M 0.8125 0 L 0.8125 -1.734375 L 1.578125 -1.734375 C 1.984375 -1.734375 2.332031 -1.789062 2.625 -1.90625 C 2.925781 -2.019531 3.160156 -2.226562 3.328125 -2.53125 C 3.503906 -2.84375 3.59375 -3.273438 3.59375 -3.828125 L 3.59375 -20.5625 C 3.59375 -21.101562 3.507812 -21.523438 3.34375 -21.828125 C 3.1875 -22.140625 2.984375 -22.351562 2.734375 -22.46875 C 2.484375 -22.582031 2.195312 -22.640625 1.875 -22.640625 L 0.8125 -22.640625 L 0.8125 -24.390625 L 9.53125 -24.390625 L 14.203125 -7.234375 L 18.75 -24.390625 L 27.5625 -24.390625 L 27.5625 -22.640625 L 26.40625 -22.640625 C 26.132812 -22.640625 25.878906 -22.582031 25.640625 -22.46875 C 25.398438 -22.351562 25.203125 -22.148438 25.046875 -21.859375 C 24.898438 -21.566406 24.828125 -21.15625 24.828125 -20.625 L 24.828125 -3.75 C 24.828125 -3.226562 24.894531 -2.816406 25.03125 -2.515625 C 25.164062 -2.222656 25.367188 -2.019531 25.640625 -1.90625 C 25.921875 -1.789062 26.242188 -1.734375 26.609375 -1.734375 L 27.5625 -1.734375 L 27.5625 0 L 17.796875 0 L 17.796875 -1.734375 L 18.171875 -1.734375 C 18.628906 -1.734375 18.992188 -1.796875 19.265625 -1.921875 C 19.535156 -2.054688 19.734375 -2.285156 19.859375 -2.609375 C 19.984375 -2.941406 20.054688 -3.394531 20.078125 -3.96875 L 20.078125 -21.171875 L 14.34375 0 L 11.78125 0 L 5.84375 -21.171875 L 5.84375 -4 C 5.84375 -3.332031 5.929688 -2.835938 6.109375 -2.515625 C 6.296875 -2.203125 6.550781 -1.992188 6.875 -1.890625 C 7.207031 -1.785156 7.601562 -1.734375 8.0625 -1.734375 L 8.296875 -1.734375 L 8.296875 0 Z M 0.8125 0 "/></g></g></g><g fill="#ffffff" fill-opacity="1"><g transform="translate(193.476369, 199.874987)"><g><path d="M 0.140625 0 L 0.140625 -1.734375 L 0.484375 -1.734375 C 0.847656 -1.734375 1.164062 -1.796875 1.4375 -1.921875 C 1.707031 -2.054688 1.960938 -2.300781 2.203125 -2.65625 C 2.441406 -3.019531 2.664062 -3.546875 2.875 -4.234375 L 9.296875 -24.390625 L 13.5625 -24.390625 L 19.875 -3.6875 C 20.039062 -3.207031 20.226562 -2.816406 20.4375 -2.515625 C 20.65625 -2.222656 20.910156 -2.019531 21.203125 -1.90625 C 21.503906 -1.789062 21.835938 -1.734375 22.203125 -1.734375 L 22.546875 -1.734375 L 22.546875 0 L 12.5625 0 L 12.5625 -1.734375 L 13.5625 -1.734375 C 13.988281 -1.734375 14.332031 -1.832031 14.59375 -2.03125 C 14.863281 -2.226562 15 -2.539062 15 -2.96875 C 15 -3.15625 14.976562 -3.347656 14.9375 -3.546875 C 14.90625 -3.753906 14.863281 -3.957031 14.8125 -4.15625 C 14.769531 -4.363281 14.71875 -4.550781 14.65625 -4.71875 L 13.703125 -8.0625 L 6.53125 -8.0625 L 5.703125 -5.15625 C 5.660156 -4.976562 5.609375 -4.765625 5.546875 -4.515625 C 5.492188 -4.265625 5.441406 -4.007812 5.390625 -3.75 C 5.347656 -3.5 5.328125 -3.273438 5.328125 -3.078125 C 5.328125 -2.660156 5.4375 -2.332031 5.65625 -2.09375 C 5.875 -1.851562 6.242188 -1.734375 6.765625 -1.734375 L 7.921875 -1.734375 L 7.921875 0 Z M 7.171875 -10.078125 L 13.078125 -10.078125 L 11.34375 -16.53125 C 11.207031 -17.070312 11.0625 -17.597656 10.90625 -18.109375 C 10.757812 -18.628906 10.628906 -19.140625 10.515625 -19.640625 C 10.398438 -20.140625 10.300781 -20.617188 10.21875 -21.078125 C 10.125 -20.617188 10.015625 -20.144531 9.890625 -19.65625 C 9.765625 -19.164062 9.640625 -18.675781 9.515625 -18.1875 C 9.390625 -17.695312 9.242188 -17.203125 9.078125 -16.703125 Z M 7.171875 -10.078125 "/></g></g></g><g fill="#ffffff" fill-opacity="1"><g transform="translate(216.014351, 199.874987)"><g><path d="M 0.8125 0 L 0.8125 -1.734375 L 1.671875 -1.734375 C 1.992188 -1.734375 2.300781 -1.78125 2.59375 -1.875 C 2.894531 -1.96875 3.132812 -2.160156 3.3125 -2.453125 C 3.5 -2.753906 3.59375 -3.210938 3.59375 -3.828125 L 3.59375 -20.53125 C 3.59375 -21.164062 3.492188 -21.628906 3.296875 -21.921875 C 3.097656 -22.222656 2.851562 -22.414062 2.5625 -22.5 C 2.269531 -22.59375 1.972656 -22.640625 1.671875 -22.640625 L 0.8125 -22.640625 L 0.8125 -24.390625 L 10.546875 -24.390625 C 12.597656 -24.390625 14.242188 -24.144531 15.484375 -23.65625 C 16.722656 -23.164062 17.625 -22.4375 18.1875 -21.46875 C 18.75 -20.5 19.03125 -19.320312 19.03125 -17.9375 C 19.03125 -16.65625 18.832031 -15.585938 18.4375 -14.734375 C 18.050781 -13.878906 17.523438 -13.203125 16.859375 -12.703125 C 16.203125 -12.203125 15.5 -11.828125 14.75 -11.578125 L 18.40625 -4.578125 C 18.90625 -3.597656 19.363281 -2.878906 19.78125 -2.421875 C 20.207031 -1.960938 20.695312 -1.734375 21.25 -1.734375 L 21.421875 -1.734375 L 21.421875 0 L 20.390625 0 C 19.253906 0 18.269531 -0.078125 17.4375 -0.234375 C 16.601562 -0.398438 15.894531 -0.703125 15.3125 -1.140625 C 14.738281 -1.585938 14.257812 -2.234375 13.875 -3.078125 L 10.390625 -10.625 L 8.46875 -10.625 L 8.46875 -3.828125 C 8.46875 -3.210938 8.539062 -2.753906 8.6875 -2.453125 C 8.84375 -2.160156 9.054688 -1.96875 9.328125 -1.875 C 9.597656 -1.78125 9.90625 -1.734375 10.25 -1.734375 L 10.828125 -1.734375 L 10.828125 0 Z M 9.96875 -12.5 C 11.363281 -12.5 12.363281 -12.9375 12.96875 -13.8125 C 13.570312 -14.6875 13.875 -15.96875 13.875 -17.65625 C 13.875 -18.769531 13.734375 -19.679688 13.453125 -20.390625 C 13.179688 -21.097656 12.757812 -21.613281 12.1875 -21.9375 C 11.625 -22.269531 10.894531 -22.4375 10 -22.4375 L 8.46875 -22.4375 L 8.46875 -12.5 Z M 9.96875 -12.5 "/></g></g></g><g fill="#ffffff" fill-opacity="1"><g transform="translate(237.357135, 199.874987)"><g><path d="M 0.140625 0 L 0.140625 -1.734375 L 0.484375 -1.734375 C 0.847656 -1.734375 1.164062 -1.796875 1.4375 -1.921875 C 1.707031 -2.054688 1.960938 -2.300781 2.203125 -2.65625 C 2.441406 -3.019531 2.664062 -3.546875 2.875 -4.234375 L 9.296875 -24.390625 L 13.5625 -24.390625 L 19.875 -3.6875 C 20.039062 -3.207031 20.226562 -2.816406 20.4375 -2.515625 C 20.65625 -2.222656 20.910156 -2.019531 21.203125 -1.90625 C 21.503906 -1.789062 21.835938 -1.734375 22.203125 -1.734375 L 22.546875 -1.734375 L 22.546875 0 L 12.5625 0 L 12.5625 -1.734375 L 13.5625 -1.734375 C 13.988281 -1.734375 14.332031 -1.832031 14.59375 -2.03125 C 14.863281 -2.226562 15 -2.539062 15 -2.96875 C 15 -3.15625 14.976562 -3.347656 14.9375 -3.546875 C 14.90625 -3.753906 14.863281 -3.957031 14.8125 -4.15625 C 14.769531 -4.363281 14.71875 -4.550781 14.65625 -4.71875 L 13.703125 -8.0625 L 6.53125 -8.0625 L 5.703125 -5.15625 C 5.660156 -4.976562 5.609375 -4.765625 5.546875 -4.515625 C 5.492188 -4.265625 5.441406 -4.007812 5.390625 -3.75 C 5.347656 -3.5 5.328125 -3.273438 5.328125 -3.078125 C 5.328125 -2.660156 5.4375 -2.332031 5.65625 -2.09375 C 5.875 -1.851562 6.242188 -1.734375 6.765625 -1.734375 L 7.921875 -1.734375 L 7.921875 0 Z M 7.171875 -10.078125 L 13.078125 -10.078125 L 11.34375 -16.53125 C 11.207031 -17.070312 11.0625 -17.597656 10.90625 -18.109375 C 10.757812 -18.628906 10.628906 -19.140625 10.515625 -19.640625 C 10.398438 -20.140625 10.300781 -20.617188 10.21875 -21.078125 C 10.125 -20.617188 10.015625 -20.144531 9.890625 -19.65625 C 9.765625 -19.164062 9.640625 -18.675781 9.515625 -18.1875 C 9.390625 -17.695312 9.242188 -17.203125 9.078125 -16.703125 Z M 7.171875 -10.078125 "/></g></g></g><g fill="#ffffff" fill-opacity="1"><g transform="translate(259.895116, 199.874987)"><g><path d="M 2.5 -20.828125 C 2.382812 -21.335938 2.234375 -21.722656 2.046875 -21.984375 C 1.867188 -22.242188 1.640625 -22.414062 1.359375 -22.5 C 1.085938 -22.59375 0.757812 -22.640625 0.375 -22.640625 L 0 -22.640625 L 0 -24.390625 L 10.078125 -24.390625 L 10.078125 -22.640625 L 9.390625 -22.640625 C 8.796875 -22.640625 8.347656 -22.519531 8.046875 -22.28125 C 7.753906 -22.039062 7.609375 -21.671875 7.609375 -21.171875 C 7.609375 -20.992188 7.644531 -20.71875 7.71875 -20.34375 C 7.789062 -19.96875 7.859375 -19.617188 7.921875 -19.296875 L 9.875 -10.515625 C 10.007812 -9.921875 10.144531 -9.300781 10.28125 -8.65625 C 10.414062 -8.007812 10.539062 -7.382812 10.65625 -6.78125 C 10.769531 -6.175781 10.863281 -5.625 10.9375 -5.125 C 11.039062 -5.894531 11.203125 -6.707031 11.421875 -7.5625 C 11.640625 -8.414062 11.875 -9.34375 12.125 -10.34375 L 15.78125 -24.15625 L 18.71875 -24.15625 L 22.03125 -10.71875 C 22.28125 -9.625 22.515625 -8.597656 22.734375 -7.640625 C 22.953125 -6.691406 23.128906 -5.832031 23.265625 -5.0625 C 23.347656 -5.5625 23.445312 -6.101562 23.5625 -6.6875 C 23.675781 -7.28125 23.800781 -7.894531 23.9375 -8.53125 C 24.082031 -9.175781 24.222656 -9.835938 24.359375 -10.515625 L 26.265625 -19.0625 C 26.335938 -19.40625 26.410156 -19.789062 26.484375 -20.21875 C 26.566406 -20.65625 26.609375 -20.988281 26.609375 -21.21875 C 26.609375 -21.757812 26.453125 -22.128906 26.140625 -22.328125 C 25.835938 -22.535156 25.351562 -22.640625 24.6875 -22.640625 L 24.015625 -22.640625 L 24.015625 -24.390625 L 31.828125 -24.390625 L 31.828125 -22.640625 L 31.28125 -22.640625 C 30.894531 -22.640625 30.566406 -22.578125 30.296875 -22.453125 C 30.023438 -22.328125 29.785156 -22.070312 29.578125 -21.6875 C 29.367188 -21.300781 29.175781 -20.734375 29 -19.984375 L 24.359375 0 L 20.21875 0 L 16.125 -17.046875 L 11.78125 0 L 7.609375 0 Z M 2.5 -20.828125 "/></g></g></g><g fill="#ffffff" fill-opacity="1"><g transform="translate(291.687328, 199.874987)"><g><path d="M 0.140625 0 L 0.140625 -1.734375 L 0.484375 -1.734375 C 0.847656 -1.734375 1.164062 -1.796875 1.4375 -1.921875 C 1.707031 -2.054688 1.960938 -2.300781 2.203125 -2.65625 C 2.441406 -3.019531 2.664062 -3.546875 2.875 -4.234375 L 9.296875 -24.390625 L 13.5625 -24.390625 L 19.875 -3.6875 C 20.039062 -3.207031 20.226562 -2.816406 20.4375 -2.515625 C 20.65625 -2.222656 20.910156 -2.019531 21.203125 -1.90625 C 21.503906 -1.789062 21.835938 -1.734375 22.203125 -1.734375 L 22.546875 -1.734375 L 22.546875 0 L 12.5625 0 L 12.5625 -1.734375 L 13.5625 -1.734375 C 13.988281 -1.734375 14.332031 -1.832031 14.59375 -2.03125 C 14.863281 -2.226562 15 -2.539062 15 -2.96875 C 15 -3.15625 14.976562 -3.347656 14.9375 -3.546875 C 14.90625 -3.753906 14.863281 -3.957031 14.8125 -4.15625 C 14.769531 -4.363281 14.71875 -4.550781 14.65625 -4.71875 L 13.703125 -8.0625 L 6.53125 -8.0625 L 5.703125 -5.15625 C 5.660156 -4.976562 5.609375 -4.765625 5.546875 -4.515625 C 5.492188 -4.265625 5.441406 -4.007812 5.390625 -3.75 C 5.347656 -3.5 5.328125 -3.273438 5.328125 -3.078125 C 5.328125 -2.660156 5.4375 -2.332031 5.65625 -2.09375 C 5.875 -1.851562 6.242188 -1.734375 6.765625 -1.734375 L 7.921875 -1.734375 L 7.921875 0 Z M 7.171875 -10.078125 L 13.078125 -10.078125 L 11.34375 -16.53125 C 11.207031 -17.070312 11.0625 -17.597656 10.90625 -18.109375 C 10.757812 -18.628906 10.628906 -19.140625 10.515625 -19.640625 C 10.398438 -20.140625 10.300781 -20.617188 10.21875 -21.078125 C 10.125 -20.617188 10.015625 -20.144531 9.890625 -19.65625 C 9.765625 -19.164062 9.640625 -18.675781 9.515625 -18.1875 C 9.390625 -17.695312 9.242188 -17.203125 9.078125 -16.703125 Z M 7.171875 -10.078125 "/></g></g></g><g fill="#ffffff" fill-opacity="1"><g transform="translate(314.225309, 199.874987)"><g><path d="M 8.15625 0.34375 C 6.769531 0.34375 5.613281 0.207031 4.6875 -0.0625 C 3.769531 -0.34375 3.035156 -0.707031 2.484375 -1.15625 C 1.941406 -1.613281 1.554688 -2.117188 1.328125 -2.671875 C 1.097656 -3.234375 0.984375 -3.800781 0.984375 -4.375 C 0.984375 -5.101562 1.132812 -5.6875 1.4375 -6.125 C 1.75 -6.570312 2.15625 -6.894531 2.65625 -7.09375 C 3.164062 -7.300781 3.703125 -7.40625 4.265625 -7.40625 C 4.285156 -6.132812 4.5 -5.066406 4.90625 -4.203125 C 5.320312 -3.335938 5.859375 -2.6875 6.515625 -2.25 C 7.179688 -1.820312 7.898438 -1.609375 8.671875 -1.609375 C 9.816406 -1.609375 10.695312 -1.960938 11.3125 -2.671875 C 11.925781 -3.390625 12.234375 -4.285156 12.234375 -5.359375 C 12.234375 -6.203125 12.035156 -6.914062 11.640625 -7.5 C 11.253906 -8.082031 10.6875 -8.617188 9.9375 -9.109375 C 9.1875 -9.597656 8.265625 -10.09375 7.171875 -10.59375 C 5.785156 -11.269531 4.6875 -11.972656 3.875 -12.703125 C 3.070312 -13.429688 2.488281 -14.25 2.125 -15.15625 C 1.757812 -16.070312 1.578125 -17.085938 1.578125 -18.203125 C 1.578125 -19.546875 1.90625 -20.703125 2.5625 -21.671875 C 3.21875 -22.640625 4.109375 -23.390625 5.234375 -23.921875 C 6.367188 -24.460938 7.628906 -24.734375 9.015625 -24.734375 C 10.472656 -24.734375 11.671875 -24.53125 12.609375 -24.125 C 13.554688 -23.726562 14.265625 -23.21875 14.734375 -22.59375 C 15.203125 -21.96875 15.4375 -21.328125 15.4375 -20.671875 C 15.4375 -19.867188 15.15625 -19.238281 14.59375 -18.78125 C 14.039062 -18.332031 13.128906 -18.109375 11.859375 -18.109375 C 11.859375 -18.878906 11.726562 -19.613281 11.46875 -20.3125 C 11.21875 -21.019531 10.847656 -21.601562 10.359375 -22.0625 C 9.867188 -22.519531 9.238281 -22.75 8.46875 -22.75 C 7.582031 -22.75 6.867188 -22.460938 6.328125 -21.890625 C 5.796875 -21.328125 5.53125 -20.507812 5.53125 -19.4375 C 5.53125 -18.769531 5.660156 -18.164062 5.921875 -17.625 C 6.179688 -17.082031 6.675781 -16.546875 7.40625 -16.015625 C 8.132812 -15.492188 9.171875 -14.914062 10.515625 -14.28125 C 11.910156 -13.664062 13.019531 -13 13.84375 -12.28125 C 14.675781 -11.5625 15.28125 -10.757812 15.65625 -9.875 C 16.03125 -8.988281 16.21875 -7.972656 16.21875 -6.828125 C 16.21875 -5.347656 15.890625 -4.070312 15.234375 -3 C 14.578125 -1.9375 13.644531 -1.113281 12.4375 -0.53125 C 11.226562 0.0507812 9.800781 0.34375 8.15625 0.34375 Z M 8.15625 0.34375 "/></g></g></g><g fill="#ffffff" fill-opacity="1"><g transform="translate(331.504434, 199.874987)"><g><path d="M 0.8125 0 L 0.8125 -1.734375 L 1.984375 -1.734375 C 2.296875 -1.734375 2.570312 -1.800781 2.8125 -1.9375 C 3.050781 -2.082031 3.238281 -2.304688 3.375 -2.609375 C 3.519531 -2.921875 3.59375 -3.316406 3.59375 -3.796875 L 3.59375 -20.5625 C 3.59375 -21.101562 3.507812 -21.523438 3.34375 -21.828125 C 3.1875 -22.140625 2.96875 -22.351562 2.6875 -22.46875 C 2.414062 -22.582031 2.113281 -22.640625 1.78125 -22.640625 L 0.8125 -22.640625 L 0.8125 -24.390625 L 10.828125 -24.390625 L 10.828125 -22.640625 L 9.96875 -22.640625 C 9.675781 -22.640625 9.410156 -22.582031 9.171875 -22.46875 C 8.929688 -22.351562 8.753906 -22.148438 8.640625 -21.859375 C 8.523438 -21.566406 8.46875 -21.15625 8.46875 -20.625 L 8.46875 -13.734375 L 16.015625 -13.734375 L 16.015625 -20.5625 C 16.015625 -21.101562 15.953125 -21.523438 15.828125 -21.828125 C 15.703125 -22.140625 15.515625 -22.351562 15.265625 -22.46875 C 15.015625 -22.582031 14.707031 -22.640625 14.34375 -22.640625 L 13.625 -22.640625 L 13.625 -24.390625 L 23.640625 -24.390625 L 23.640625 -22.640625 L 22.46875 -22.640625 C 22.15625 -22.640625 21.878906 -22.582031 21.640625 -22.46875 C 21.398438 -22.351562 21.210938 -22.140625 21.078125 -21.828125 C 20.941406 -21.523438 20.875 -21.101562 20.875 -20.5625 L 20.875 -3.796875 C 20.875 -3.296875 20.941406 -2.890625 21.078125 -2.578125 C 21.210938 -2.273438 21.40625 -2.054688 21.65625 -1.921875 C 21.90625 -1.796875 22.175781 -1.734375 22.46875 -1.734375 L 23.640625 -1.734375 L 23.640625 0 L 13.625 0 L 13.625 -1.734375 L 14.375 -1.734375 C 14.71875 -1.734375 15.015625 -1.800781 15.265625 -1.9375 C 15.515625 -2.082031 15.703125 -2.3125 15.828125 -2.625 C 15.953125 -2.945312 16.015625 -3.378906 16.015625 -3.921875 L 16.015625 -11.75 L 8.46875 -11.75 L 8.46875 -3.796875 C 8.46875 -3.316406 8.523438 -2.921875 8.640625 -2.609375 C 8.753906 -2.304688 8.929688 -2.082031 9.171875 -1.9375 C 9.410156 -1.800781 9.675781 -1.734375 9.96875 -1.734375 L 10.828125 -1.734375 L 10.828125 0 Z M 0.8125 0 "/></g></g></g></svg>