<?xml version="1.0" encoding="UTF-8"?>
<svg xmlns="http://www.w3.org/2000/svg" xmlns:xlink="http://www.w3.org/1999/xlink" width="140px" height="70px" viewBox="0 0 140 70" version="1.1">
<defs>
<clipPath id="clip1">
  <path d="M 2 33 L 38.890625 33 L 38.890625 57.007812 L 2 57.007812 Z M 2 33 "/>
</clipPath>
<clipPath id="clip2">
  <path d="M 1.554688 16.800781 L 43.519531 16.800781 L 43.519531 52 L 1.554688 52 Z M 1.554688 16.800781 "/>
</clipPath>
<clipPath id="clip3">
  <path d="M 0.921875 11.410156 L 35 11.410156 L 35 48.535156 L 0.921875 48.535156 Z M 0.921875 11.410156 "/>
</clipPath>
<clipPath id="clip4">
  <path d="M 129.109375 30 L 139 30 L 139 42.933594 L 129.109375 42.933594 Z M 129.109375 30 "/>
</clipPath>
</defs>
<g id="surface1">
<g clip-path="url(#clip1)" clip-rule="nonzero">
<path style=" stroke:none;fill-rule:evenodd;fill:rgb(100%,100%,100%);fill-opacity:1;" d="M 15.167969 36.050781 C 19.804688 32.921875 22.082031 35.707031 25.011719 36.953125 C 26.558594 37.609375 30.667969 37.871094 31.140625 35.386719 C 31.25 34.78125 31.042969 34.199219 30.726562 33.824219 C 30.605469 33.679688 30.429688 33.550781 30.207031 33.402344 C 31.3125 33.511719 32.410156 33.554688 33.421875 33.605469 C 34.726562 33.664062 35.996094 34.191406 36.921875 35.351562 C 37.6875 36.304688 38.109375 37.558594 38.128906 38.878906 C 38.140625 40.058594 37.820312 41.199219 37.222656 42.136719 C 36.507812 43.277344 35.472656 43.996094 34.355469 44.398438 C 30.921875 45.59375 27.433594 44.070312 24.398438 42.160156 C 22.28125 40.832031 20.300781 39.265625 18.222656 37.871094 C 17.257812 37.230469 16.230469 36.605469 15.167969 36.050781 Z M 2.757812 46.972656 C 3.644531 50.824219 6.023438 54.023438 9.535156 55.636719 C 13.050781 57.238281 15.519531 57.65625 17.6875 57.589844 C 19.863281 57.53125 23.230469 56.816406 23.230469 56.816406 C 19.140625 56.628906 9.207031 55.042969 8.921875 48.394531 C 8.824219 46.089844 9.910156 46.023438 10.847656 46.382812 C 14.664062 47.824219 17.839844 51.632812 22.511719 53.460938 C 27.0625 55.234375 33.914062 55.328125 37.417969 51.210938 C 35.996094 51.980469 34.453125 52.417969 32.78125 52.472656 C 27.640625 52.601562 22.5 48.964844 18.328125 45.667969 C 17.097656 44.699219 15.878906 43.734375 14.632812 42.816406 C 13.484375 41.972656 12.316406 41.160156 11.09375 40.46875 C 9.394531 39.507812 7.121094 38.5 5.257812 39.199219 C 2.316406 40.316406 2.035156 43.84375 2.757812 46.972656 Z M 2.757812 46.972656 "/>
</g>
<g clip-path="url(#clip2)" clip-rule="nonzero">
<path style=" stroke:none;fill-rule:evenodd;fill:rgb(100%,100%,100%);fill-opacity:1;" d="M 25.34375 22.503906 C 25.34375 22.503906 23.933594 26.273438 25.5625 27.699219 C 25.910156 28 26.542969 28.183594 27.367188 28.3125 C 32.039062 29.078125 36.214844 28.351562 39.1875 30.332031 C 41.527344 31.894531 43.816406 35 43.871094 38.9375 C 43.90625 42.328125 42.632812 45.375 40.65625 47.601562 C 33.546875 55.597656 25.320312 50.230469 18.683594 45.003906 C 13.3125 40.773438 7.894531 36.457031 4.230469 38.878906 C 2.21875 40.207031 2.296875 41.917969 2.113281 43.285156 C 1.210938 39.03125 4.507812 35.773438 7.703125 35.191406 C 11.003906 34.585938 14.632812 36.378906 17.902344 38.574219 C 22.652344 41.765625 28.566406 47.25 34.539062 45.15625 C 37.40625 44.160156 38.828125 41.496094 38.796875 38.878906 C 38.765625 35.917969 36.902344 32.996094 33.449219 32.820312 C 31.074219 32.703125 27.023438 32.636719 24.410156 30.867188 C 23.359375 30.152344 22.828125 29.210938 22.664062 28.195312 C 22.324219 26.082031 23.632812 23.660156 25.34375 22.503906 Z M 7.066406 43.175781 C 7.941406 43.175781 8.660156 44.035156 8.660156 45.085938 C 8.660156 46.132812 7.941406 46.996094 7.066406 46.996094 C 6.191406 46.996094 5.476562 46.132812 5.476562 45.085938 C 5.476562 44.035156 6.191406 43.175781 7.066406 43.175781 Z M 22.039062 16.871094 C 23.261719 16.871094 24.257812 18.054688 24.257812 19.535156 C 24.257812 20.992188 23.265625 22.1875 22.039062 22.1875 C 20.824219 22.1875 19.828125 21.007812 19.828125 19.535156 C 19.832031 18.054688 20.824219 16.871094 22.039062 16.871094 Z M 7.128906 27.992188 C 8.195312 27.992188 9.054688 29.027344 9.054688 30.296875 C 9.054688 31.582031 8.183594 32.609375 7.128906 32.609375 C 6.0625 32.609375 5.207031 31.566406 5.207031 30.296875 C 5.207031 29.027344 6.0625 27.992188 7.128906 27.992188 Z M 7.128906 27.992188 "/>
</g>
<g clip-path="url(#clip3)" clip-rule="nonzero">
<path style=" stroke:none;fill-rule:evenodd;fill:rgb(100%,100%,100%);fill-opacity:1;" d="M 2.125 32.855469 C 2.789062 32.855469 3.324219 33.496094 3.324219 34.300781 C 3.324219 35.09375 2.789062 35.738281 2.125 35.738281 C 1.457031 35.738281 0.921875 35.09375 0.921875 34.300781 C 0.921875 33.496094 1.457031 32.855469 2.125 32.855469 Z M 31.78125 41.160156 C 33.367188 41.160156 34.660156 42.707031 34.660156 44.617188 C 34.660156 46.519531 33.367188 48.074219 31.78125 48.074219 C 30.1875 48.074219 28.898438 46.519531 28.898438 44.617188 C 28.90625 42.707031 30.195312 41.160156 31.78125 41.160156 Z M 28.566406 23.128906 C 29.421875 23.128906 30.109375 23.96875 30.109375 24.980469 C 30.109375 25.996094 29.410156 26.824219 28.566406 26.824219 C 27.707031 26.824219 27.023438 25.996094 27.023438 24.980469 C 27.023438 23.96875 27.71875 23.128906 28.566406 23.128906 Z M 15.25 20.546875 C 18.222656 20.546875 20.628906 23.433594 20.628906 27 C 20.628906 30.558594 18.222656 33.453125 15.25 33.453125 C 12.285156 33.453125 9.878906 30.558594 9.878906 27 C 9.878906 23.433594 12.285156 20.546875 15.25 20.546875 Z M 15.617188 11.410156 C 17.273438 11.410156 18.617188 13.015625 18.617188 15.011719 C 18.617188 17.003906 17.269531 18.617188 15.617188 18.617188 C 13.957031 18.617188 12.613281 16.996094 12.613281 15.011719 C 12.613281 13.03125 13.964844 11.410156 15.617188 11.410156 Z M 15.617188 11.410156 "/>
</g>
<path style=" stroke:none;fill-rule:nonzero;fill:rgb(100%,100%,100%);fill-opacity:1;" d="M 51.949219 42.714844 C 51.054688 42.714844 50.308594 42.464844 49.710938 41.957031 C 49.109375 41.453125 48.65625 40.753906 48.351562 39.855469 C 48.058594 38.964844 47.914062 37.917969 47.914062 36.707031 C 47.914062 35.503906 48.066406 34.453125 48.375 33.554688 C 48.679688 32.667969 49.140625 31.972656 49.761719 31.484375 C 50.375 30.980469 51.128906 30.726562 52.023438 30.726562 C 52.636719 30.726562 53.140625 30.8125 53.527344 30.988281 C 53.929688 31.148438 54.238281 31.367188 54.453125 31.660156 C 54.660156 31.953125 54.769531 32.273438 54.769531 32.621094 C 54.769531 33.015625 54.632812 33.335938 54.378906 33.585938 C 54.117188 33.820312 53.734375 33.933594 53.238281 33.933594 C 53.238281 33.585938 53.195312 33.25 53.117188 32.914062 C 53.03125 32.5625 52.898438 32.289062 52.703125 32.070312 C 52.507812 31.835938 52.246094 31.71875 51.925781 31.71875 C 51.4375 31.71875 51.050781 31.921875 50.757812 32.332031 C 50.476562 32.726562 50.277344 33.285156 50.148438 34.023438 C 50.015625 34.765625 49.957031 35.65625 49.957031 36.707031 C 49.957031 37.757812 50.027344 38.644531 50.175781 39.359375 C 50.332031 40.082031 50.585938 40.628906 50.929688 40.992188 C 51.269531 41.34375 51.71875 41.519531 52.289062 41.519531 C 52.691406 41.519531 53.042969 41.445312 53.335938 41.285156 C 53.625 41.109375 53.867188 40.90625 54.0625 40.671875 C 54.257812 40.425781 54.429688 40.167969 54.574219 39.914062 C 54.621094 39.996094 54.660156 40.105469 54.695312 40.234375 C 54.742188 40.351562 54.769531 40.46875 54.769531 40.585938 C 54.769531 40.820312 54.71875 41.066406 54.621094 41.3125 C 54.523438 41.546875 54.367188 41.773438 54.160156 41.984375 C 53.964844 42.203125 53.679688 42.378906 53.308594 42.511719 C 52.953125 42.640625 52.496094 42.714844 51.949219 42.714844 Z M 51.949219 42.714844 "/>
<path style=" stroke:none;fill-rule:nonzero;fill:rgb(100%,100%,100%);fill-opacity:1;" d="M 55.5625 42.539062 L 55.5625 41.695312 L 56.027344 41.695312 C 56.152344 41.695312 56.269531 41.664062 56.367188 41.605469 C 56.464844 41.546875 56.535156 41.453125 56.585938 41.3125 C 56.644531 41.183594 56.683594 40.992188 56.683594 40.761719 L 56.683594 32.738281 C 56.683594 32.433594 56.644531 32.207031 56.585938 32.070312 C 56.519531 31.914062 56.4375 31.820312 56.339844 31.777344 C 56.246094 31.742188 56.128906 31.71875 56 31.71875 L 55.5625 31.71875 L 55.5625 30.871094 L 62.222656 30.871094 L 62.246094 33.847656 L 61.398438 33.847656 L 61.347656 33.089844 C 61.332031 32.839844 61.289062 32.617188 61.226562 32.417969 C 61.160156 32.230469 61.0625 32.082031 60.933594 31.980469 C 60.820312 31.886719 60.65625 31.835938 60.449219 31.835938 L 58.601562 31.835938 L 58.601562 35.976562 L 61.421875 35.976562 L 61.421875 36.910156 L 58.601562 36.910156 L 58.601562 41.578125 L 60.765625 41.578125 C 60.972656 41.578125 61.140625 41.53125 61.277344 41.429688 C 61.402344 41.3125 61.5 41.160156 61.566406 40.964844 C 61.644531 40.773438 61.699219 40.554688 61.738281 40.324219 L 61.808594 39.5625 L 62.660156 39.5625 L 62.589844 42.539062 Z M 55.5625 42.539062 "/>
<path style=" stroke:none;fill-rule:nonzero;fill:rgb(100%,100%,100%);fill-opacity:1;" d="M 63.335938 42.539062 L 63.335938 41.695312 L 63.652344 41.695312 C 63.808594 41.695312 63.949219 41.679688 64.066406 41.636719 C 64.175781 41.578125 64.265625 41.480469 64.332031 41.34375 C 64.410156 41.191406 64.453125 40.980469 64.453125 40.703125 L 64.453125 32.710938 C 64.453125 32.441406 64.417969 32.234375 64.355469 32.097656 C 64.289062 31.945312 64.210938 31.851562 64.113281 31.804688 C 64.015625 31.746094 63.902344 31.71875 63.773438 31.71875 L 63.335938 31.71875 L 63.335938 30.871094 L 66.8125 30.871094 L 68.683594 39.070312 L 70.480469 30.871094 L 74.007812 30.871094 L 74.007812 31.71875 L 73.542969 31.71875 C 73.429688 31.71875 73.324219 31.746094 73.226562 31.804688 C 73.132812 31.851562 73.046875 31.945312 72.984375 32.097656 C 72.9375 32.234375 72.914062 32.433594 72.914062 32.679688 L 72.914062 40.730469 C 72.914062 40.984375 72.9375 41.191406 72.984375 41.34375 C 73.046875 41.480469 73.132812 41.578125 73.226562 41.636719 C 73.335938 41.679688 73.472656 41.695312 73.617188 41.695312 L 74.007812 41.695312 L 74.007812 42.539062 L 70.117188 42.539062 L 70.117188 41.695312 L 70.261719 41.695312 C 70.4375 41.695312 70.585938 41.664062 70.699219 41.605469 C 70.808594 41.546875 70.894531 41.445312 70.945312 41.285156 C 70.992188 41.132812 71.015625 40.921875 71.015625 40.644531 L 71.015625 32.417969 L 68.730469 42.539062 L 67.710938 42.539062 L 65.351562 32.417969 L 65.351562 40.613281 C 65.351562 40.949219 65.382812 41.191406 65.449219 41.34375 C 65.53125 41.480469 65.632812 41.578125 65.765625 41.636719 C 65.894531 41.679688 66.046875 41.695312 66.226562 41.695312 L 66.324219 41.695312 L 66.324219 42.539062 Z M 63.335938 42.539062 "/>
<path style=" stroke:none;fill-rule:nonzero;fill:rgb(100%,100%,100%);fill-opacity:1;" d="M 74.367188 42.539062 L 74.367188 41.695312 L 74.511719 41.695312 C 74.65625 41.695312 74.78125 41.664062 74.875 41.605469 C 74.984375 41.546875 75.09375 41.429688 75.191406 41.257812 C 75.289062 41.082031 75.375 40.839844 75.460938 40.527344 L 78.011719 30.871094 L 79.714844 30.871094 L 82.242188 40.789062 C 82.300781 41.007812 82.375 41.191406 82.460938 41.34375 C 82.539062 41.480469 82.636719 41.578125 82.75 41.636719 C 82.878906 41.679688 83.019531 41.695312 83.164062 41.695312 L 83.3125 41.695312 L 83.3125 42.539062 L 79.324219 42.539062 L 79.324219 41.695312 L 79.714844 41.695312 C 79.890625 41.695312 80.03125 41.65625 80.125 41.578125 C 80.234375 41.480469 80.296875 41.328125 80.296875 41.109375 C 80.296875 41.039062 80.285156 40.949219 80.273438 40.847656 C 80.253906 40.753906 80.234375 40.65625 80.222656 40.554688 C 80.207031 40.460938 80.179688 40.375 80.152344 40.292969 L 79.785156 38.6875 L 76.917969 38.6875 L 76.601562 40.058594 C 76.566406 40.164062 76.542969 40.265625 76.53125 40.382812 C 76.511719 40.496094 76.488281 40.628906 76.457031 40.761719 C 76.4375 40.875 76.433594 40.984375 76.433594 41.082031 C 76.433594 41.277344 76.46875 41.429688 76.554688 41.546875 C 76.652344 41.648438 76.804688 41.695312 77.015625 41.695312 L 77.476562 41.695312 L 77.476562 42.539062 Z M 77.1875 37.726562 L 79.519531 37.726562 L 78.839844 34.636719 C 78.789062 34.386719 78.730469 34.132812 78.667969 33.875 C 78.601562 33.628906 78.546875 33.382812 78.5 33.148438 C 78.460938 32.914062 78.425781 32.679688 78.375 32.449219 C 78.339844 32.679688 78.304688 32.914062 78.253906 33.148438 C 78.207031 33.382812 78.15625 33.613281 78.109375 33.847656 C 78.0625 34.082031 78 34.3125 77.9375 34.546875 Z M 77.1875 37.726562 "/>
<path style=" stroke:none;fill-rule:nonzero;fill:rgb(100%,100%,100%);fill-opacity:1;" d="M 83.617188 42.539062 L 83.617188 41.695312 L 83.957031 41.695312 C 84.085938 41.695312 84.207031 41.679688 84.320312 41.636719 C 84.449219 41.597656 84.546875 41.511719 84.613281 41.371094 C 84.691406 41.21875 84.734375 40.992188 84.734375 40.703125 L 84.734375 32.710938 C 84.734375 32.417969 84.691406 32.207031 84.613281 32.070312 C 84.527344 31.914062 84.429688 31.820312 84.320312 31.777344 C 84.207031 31.742188 84.085938 31.71875 83.957031 31.71875 L 83.617188 31.71875 L 83.617188 30.871094 L 87.507812 30.871094 C 88.3125 30.871094 88.964844 30.988281 89.449219 31.222656 C 89.949219 31.457031 90.3125 31.804688 90.542969 32.273438 C 90.769531 32.738281 90.882812 33.308594 90.882812 33.964844 C 90.882812 34.570312 90.800781 35.074219 90.640625 35.480469 C 90.496094 35.890625 90.28125 36.226562 90.007812 36.472656 C 89.75 36.707031 89.476562 36.882812 89.183594 36.996094 L 90.640625 40.351562 C 90.835938 40.820312 91.011719 41.160156 91.175781 41.371094 C 91.351562 41.589844 91.546875 41.695312 91.757812 41.695312 L 91.832031 41.695312 L 91.832031 42.539062 L 91.417969 42.539062 C 90.964844 42.539062 90.570312 42.503906 90.226562 42.421875 C 89.898438 42.351562 89.625 42.203125 89.402344 41.984375 C 89.171875 41.773438 88.976562 41.476562 88.820312 41.082031 L 87.433594 37.464844 L 86.679688 37.464844 L 86.679688 40.703125 C 86.679688 40.992188 86.703125 41.21875 86.753906 41.371094 C 86.8125 41.511719 86.90625 41.597656 87.019531 41.636719 C 87.128906 41.679688 87.25 41.695312 87.382812 41.695312 L 87.628906 41.695312 L 87.628906 42.539062 Z M 87.289062 36.558594 C 87.835938 36.558594 88.222656 36.355469 88.453125 35.949219 C 88.695312 35.523438 88.820312 34.898438 88.820312 34.082031 C 88.820312 33.554688 88.757812 33.132812 88.648438 32.796875 C 88.550781 32.449219 88.386719 32.199219 88.164062 32.039062 C 87.929688 31.886719 87.640625 31.804688 87.289062 31.804688 L 86.679688 31.804688 L 86.679688 36.558594 Z M 87.289062 36.558594 "/>
<path style=" stroke:none;fill-rule:nonzero;fill:rgb(100%,100%,100%);fill-opacity:1;" d="M 91.855469 42.539062 L 91.855469 41.695312 L 92.003906 41.695312 C 92.148438 41.695312 92.269531 41.664062 92.367188 41.605469 C 92.476562 41.546875 92.585938 41.429688 92.683594 41.257812 C 92.78125 41.082031 92.867188 40.839844 92.949219 40.527344 L 95.503906 30.871094 L 97.203125 30.871094 L 99.730469 40.789062 C 99.792969 41.007812 99.867188 41.191406 99.949219 41.34375 C 100.03125 41.480469 100.128906 41.578125 100.242188 41.636719 C 100.371094 41.679688 100.511719 41.695312 100.65625 41.695312 L 100.800781 41.695312 L 100.800781 42.539062 L 96.816406 42.539062 L 96.816406 41.695312 L 97.203125 41.695312 C 97.378906 41.695312 97.519531 41.65625 97.617188 41.578125 C 97.726562 41.480469 97.789062 41.328125 97.789062 41.109375 C 97.789062 41.039062 97.777344 40.949219 97.761719 40.847656 C 97.746094 40.753906 97.726562 40.65625 97.714844 40.554688 C 97.695312 40.460938 97.671875 40.375 97.640625 40.292969 L 97.277344 38.6875 L 94.410156 38.6875 L 94.09375 40.058594 C 94.058594 40.164062 94.03125 40.265625 94.019531 40.382812 C 94.003906 40.496094 93.976562 40.628906 93.949219 40.761719 C 93.929688 40.875 93.921875 40.984375 93.921875 41.082031 C 93.921875 41.277344 93.960938 41.429688 94.042969 41.546875 C 94.140625 41.648438 94.292969 41.695312 94.507812 41.695312 L 94.96875 41.695312 L 94.96875 42.539062 Z M 94.675781 37.726562 L 97.011719 37.726562 L 96.328125 34.636719 C 96.28125 34.386719 96.21875 34.132812 96.160156 33.875 C 96.09375 33.628906 96.039062 33.382812 95.988281 33.148438 C 95.953125 32.914062 95.917969 32.679688 95.867188 32.449219 C 95.832031 32.679688 95.792969 32.914062 95.746094 33.148438 C 95.699219 33.382812 95.648438 33.613281 95.601562 33.847656 C 95.550781 34.082031 95.492188 34.3125 95.429688 34.546875 Z M 94.675781 37.726562 "/>
<path style=" stroke:none;fill-rule:nonzero;fill:rgb(100%,100%,100%);fill-opacity:1;" d="M 101.789062 32.5625 C 101.738281 32.332031 101.671875 32.15625 101.59375 32.039062 C 101.527344 31.90625 101.4375 31.820312 101.328125 31.777344 C 101.230469 31.742188 101.097656 31.71875 100.9375 31.71875 L 100.792969 31.71875 L 100.792969 30.871094 L 104.800781 30.871094 L 104.800781 31.71875 L 104.535156 31.71875 C 104.292969 31.71875 104.109375 31.777344 104 31.894531 C 103.886719 31.996094 103.832031 32.171875 103.832031 32.417969 C 103.832031 32.5 103.835938 32.636719 103.855469 32.828125 C 103.886719 33 103.914062 33.167969 103.953125 33.324219 L 104.730469 37.523438 C 104.777344 37.800781 104.828125 38.089844 104.875 38.398438 C 104.9375 38.710938 104.996094 39.011719 105.046875 39.300781 C 105.09375 39.59375 105.125 39.855469 105.144531 40.089844 C 105.191406 39.726562 105.253906 39.332031 105.335938 38.921875 C 105.433594 38.515625 105.53125 38.070312 105.628906 37.582031 L 107.085938 30.988281 L 108.253906 30.988281 L 109.566406 37.40625 C 109.664062 37.929688 109.75 38.425781 109.832031 38.894531 C 109.929688 39.34375 110.003906 39.753906 110.050781 40.117188 C 110.101562 39.886719 110.136719 39.636719 110.175781 39.359375 C 110.222656 39.070312 110.269531 38.769531 110.320312 38.457031 C 110.378906 38.148438 110.441406 37.835938 110.488281 37.523438 L 111.269531 33.4375 C 111.28125 33.265625 111.304688 33.082031 111.339844 32.886719 C 111.371094 32.671875 111.390625 32.507812 111.390625 32.390625 C 111.390625 32.140625 111.324219 31.964844 111.195312 31.863281 C 111.078125 31.769531 110.890625 31.71875 110.636719 31.71875 L 110.367188 31.71875 L 110.367188 30.871094 L 113.480469 30.871094 L 113.480469 31.71875 L 113.261719 31.71875 C 113.097656 31.71875 112.957031 31.746094 112.847656 31.804688 C 112.75 31.863281 112.660156 31.996094 112.582031 32.183594 C 112.496094 32.359375 112.417969 32.621094 112.335938 32.972656 L 110.488281 42.539062 L 108.863281 42.539062 L 107.207031 34.402344 L 105.484375 42.539062 L 103.832031 42.539062 Z M 101.789062 32.5625 "/>
<path style=" stroke:none;fill-rule:nonzero;fill:rgb(100%,100%,100%);fill-opacity:1;" d="M 113.511719 42.539062 L 113.511719 41.695312 L 113.660156 41.695312 C 113.804688 41.695312 113.925781 41.664062 114.023438 41.605469 C 114.132812 41.546875 114.242188 41.429688 114.339844 41.257812 C 114.4375 41.082031 114.523438 40.839844 114.605469 40.527344 L 117.160156 30.871094 L 118.859375 30.871094 L 121.386719 40.789062 C 121.449219 41.007812 121.523438 41.191406 121.605469 41.34375 C 121.6875 41.480469 121.78125 41.578125 121.898438 41.636719 C 122.027344 41.679688 122.164062 41.695312 122.3125 41.695312 L 122.457031 41.695312 L 122.457031 42.539062 L 118.472656 42.539062 L 118.472656 41.695312 L 118.859375 41.695312 C 119.035156 41.695312 119.175781 41.65625 119.273438 41.578125 C 119.382812 41.480469 119.445312 41.328125 119.445312 41.109375 C 119.445312 41.039062 119.429688 40.949219 119.417969 40.847656 C 119.402344 40.753906 119.382812 40.65625 119.371094 40.554688 C 119.351562 40.460938 119.328125 40.375 119.296875 40.292969 L 118.933594 38.6875 L 116.066406 38.6875 L 115.75 40.058594 C 115.710938 40.164062 115.6875 40.265625 115.675781 40.382812 C 115.65625 40.496094 115.632812 40.628906 115.601562 40.761719 C 115.585938 40.875 115.578125 40.984375 115.578125 41.082031 C 115.578125 41.277344 115.617188 41.429688 115.699219 41.546875 C 115.796875 41.648438 115.949219 41.695312 116.164062 41.695312 L 116.625 41.695312 L 116.625 42.539062 Z M 116.332031 37.726562 L 118.664062 37.726562 L 117.984375 34.636719 C 117.9375 34.386719 117.875 34.132812 117.816406 33.875 C 117.75 33.628906 117.695312 33.382812 117.644531 33.148438 C 117.609375 32.914062 117.570312 32.679688 117.523438 32.449219 C 117.488281 32.679688 117.449219 32.914062 117.402344 33.148438 C 117.351562 33.382812 117.304688 33.613281 117.257812 33.847656 C 117.207031 34.082031 117.148438 34.3125 117.085938 34.546875 Z M 116.332031 37.726562 "/>
<path style=" stroke:none;fill-rule:nonzero;fill:rgb(100%,100%,100%);fill-opacity:1;" d="M 125.703125 42.714844 C 125.152344 42.714844 124.691406 42.640625 124.320312 42.511719 C 123.941406 42.378906 123.644531 42.203125 123.421875 41.984375 C 123.207031 41.773438 123.054688 41.53125 122.957031 41.257812 C 122.875 40.984375 122.835938 40.714844 122.835938 40.4375 C 122.835938 40.089844 122.890625 39.820312 123.007812 39.621094 C 123.132812 39.410156 123.296875 39.257812 123.492188 39.15625 C 123.699219 39.039062 123.917969 38.980469 124.148438 38.980469 C 124.160156 39.609375 124.253906 40.117188 124.417969 40.527344 C 124.574219 40.933594 124.789062 41.25 125.046875 41.460938 C 125.304688 41.679688 125.589844 41.78125 125.898438 41.78125 C 126.347656 41.78125 126.703125 41.605469 126.945312 41.257812 C 127.1875 40.90625 127.308594 40.484375 127.308594 39.972656 C 127.308594 39.5625 127.222656 39.230469 127.066406 38.953125 C 126.921875 38.683594 126.6875 38.425781 126.386719 38.195312 C 126.09375 37.960938 125.734375 37.71875 125.316406 37.464844 C 124.746094 37.15625 124.300781 36.824219 123.980469 36.472656 C 123.667969 36.121094 123.445312 35.734375 123.296875 35.304688 C 123.152344 34.859375 123.078125 34.371094 123.078125 33.847656 C 123.078125 33.191406 123.207031 32.636719 123.46875 32.183594 C 123.722656 31.71875 124.082031 31.359375 124.539062 31.105469 C 124.988281 30.859375 125.492188 30.726562 126.046875 30.726562 C 126.628906 30.726562 127.101562 30.828125 127.480469 31.019531 C 127.851562 31.195312 128.125 31.441406 128.304688 31.746094 C 128.5 32.039062 128.597656 32.34375 128.597656 32.652344 C 128.597656 33.046875 128.480469 33.34375 128.257812 33.554688 C 128.042969 33.773438 127.679688 33.875 127.164062 33.875 C 127.164062 33.511719 127.113281 33.164062 127.015625 32.828125 C 126.921875 32.476562 126.773438 32.199219 126.578125 31.980469 C 126.386719 31.769531 126.128906 31.660156 125.828125 31.660156 C 125.46875 31.660156 125.183594 31.796875 124.976562 32.070312 C 124.761719 32.34375 124.660156 32.730469 124.660156 33.234375 C 124.660156 33.570312 124.707031 33.863281 124.804688 34.109375 C 124.914062 34.367188 125.109375 34.621094 125.390625 34.867188 C 125.679688 35.125 126.09375 35.40625 126.628906 35.714844 C 127.195312 36.007812 127.636719 36.328125 127.964844 36.675781 C 128.304688 37.011719 128.546875 37.390625 128.695312 37.8125 C 128.839844 38.246094 128.914062 38.734375 128.914062 39.273438 C 128.914062 39.972656 128.78125 40.585938 128.523438 41.109375 C 128.261719 41.621094 127.890625 42.015625 127.40625 42.304688 C 126.921875 42.574219 126.347656 42.714844 125.703125 42.714844 Z M 125.703125 42.714844 "/>
<g clip-path="url(#clip4)" clip-rule="nonzero">
<path style=" stroke:none;fill-rule:nonzero;fill:rgb(100%,100%,100%);fill-opacity:1;" d="M 129.652344 42.539062 L 129.652344 41.695312 L 130.113281 41.695312 C 130.242188 41.695312 130.355469 41.664062 130.453125 41.605469 C 130.550781 41.546875 130.625 41.453125 130.671875 41.3125 C 130.734375 41.160156 130.769531 40.964844 130.769531 40.730469 L 130.769531 32.710938 C 130.769531 32.441406 130.734375 32.234375 130.671875 32.097656 C 130.605469 31.945312 130.515625 31.851562 130.40625 31.804688 C 130.308594 31.746094 130.1875 31.71875 130.039062 31.71875 L 129.652344 31.71875 L 129.652344 30.871094 L 133.660156 30.871094 L 133.660156 31.71875 L 133.320312 31.71875 C 133.1875 31.71875 133.078125 31.746094 132.980469 31.804688 C 132.882812 31.851562 132.8125 31.945312 132.761719 32.097656 C 132.726562 32.234375 132.714844 32.433594 132.714844 32.679688 L 132.714844 35.976562 L 135.726562 35.976562 L 135.726562 32.710938 C 135.726562 32.441406 135.691406 32.234375 135.628906 32.097656 C 135.582031 31.945312 135.507812 31.851562 135.410156 31.804688 C 135.316406 31.746094 135.191406 31.71875 135.046875 31.71875 L 134.753906 31.71875 L 134.753906 30.871094 L 138.765625 30.871094 L 138.765625 31.71875 L 138.28125 31.71875 C 138.164062 31.71875 138.0625 31.746094 137.964844 31.804688 C 137.867188 31.851562 137.78125 31.945312 137.722656 32.097656 C 137.671875 32.234375 137.648438 32.441406 137.648438 32.710938 L 137.648438 40.730469 C 137.648438 40.964844 137.671875 41.160156 137.722656 41.3125 C 137.78125 41.453125 137.867188 41.546875 137.964844 41.605469 C 138.0625 41.664062 138.164062 41.695312 138.28125 41.695312 L 138.765625 41.695312 L 138.765625 42.539062 L 134.753906 42.539062 L 134.753906 41.695312 L 135.070312 41.695312 C 135.199219 41.695312 135.316406 41.664062 135.410156 41.605469 C 135.507812 41.546875 135.582031 41.445312 135.628906 41.285156 C 135.691406 41.132812 135.726562 40.929688 135.726562 40.671875 L 135.726562 36.910156 L 132.714844 36.910156 L 132.714844 40.730469 C 132.714844 40.964844 132.726562 41.160156 132.761719 41.3125 C 132.8125 41.453125 132.882812 41.546875 132.980469 41.605469 C 133.078125 41.664062 133.1875 41.695312 133.320312 41.695312 L 133.660156 41.695312 L 133.660156 42.539062 Z M 129.652344 42.539062 "/>
</g>
</g>
</svg>
